HIERARCHY
ROOT Hips
{
	OFFSET -3.958830 18.904000 13.208200
	CHANNELS 6 Xposition Yposition Zposition Zrotation Yrotation Xrotation 
	JOINT LHipJoint
	{
		OFFSET 0.000000 0.000000 0.000000
		CHANNELS 3 Zrotation Yrotation Xrotation
		JOINT LeftUpLeg
		{
			OFFSET 1.800000 -1.400000 0.085000
			CHANNELS 3 Zrotation Yrotation Xrotation
			JOINT LeftLeg
			{
				OFFSET 2.215000 -6.000000 0.000000
				CHANNELS 3 Zrotation Yrotation Xrotation
				JOINT LeftFoot
				{
					OFFSET 2.500000 -6.900000 0.000000
					CHANNELS 3 Zrotation Yrotation Xrotation
					JOINT LeftToeBase
					{
						OFFSET 0.200000 -0.500000 1.950000
						CHANNELS 3 Zrotation Yrotation Xrotation
						End Site
						{
							OFFSET 0.000000 0.000000 0.000000
						}
					}
				}
			}
		}
	}
	JOINT RHipJoint
	{
		OFFSET 0.000000 0.000000 0.000000
		CHANNELS 3 Zrotation Yrotation Xrotation
		JOINT RightUpLeg
		{
			OFFSET -1.800000 -1.400000 0.085000
			CHANNELS 3 Zrotation Yrotation Xrotation
			JOINT RightLeg
			{
				OFFSET -2.215000 -6.000000 0.000000
				CHANNELS 3 Zrotation Yrotation Xrotation
				JOINT RightFoot
				{
					OFFSET -2.500000 -6.900000 0.000000
					CHANNELS 3 Zrotation Yrotation Xrotation
					JOINT RightToeBase
					{
						OFFSET -0.200000 -0.500000 1.950000
						CHANNELS 3 Zrotation Yrotation Xrotation
						End Site
						{
							OFFSET 0.000000 0.000000 0.000000
						}
					}
				}
			}
		}
	}
	JOINT LowerBack
	{
		OFFSET 0.000000 0.000000 0.000000
		CHANNELS 3 Zrotation Yrotation Xrotation
		JOINT Spine
		{
			OFFSET -0.087000 1.940000 -0.288900
			CHANNELS 3 Zrotation Yrotation Xrotation
			JOINT Spine1
			{
				OFFSET 0.000000 1.950000 0.060000
				CHANNELS 3 Zrotation Yrotation Xrotation
				JOINT Neck
				{
					OFFSET 0.000000 0.000000 0.000000
					CHANNELS 3 Zrotation Yrotation Xrotation
					JOINT Neck1
					{
						OFFSET 0.000000 1.600000 0.340000
						CHANNELS 3 Zrotation Yrotation Xrotation
						JOINT Head
						{
							OFFSET 0.000000 1.667000 -0.240000
							CHANNELS 3 Zrotation Yrotation Xrotation
							End Site
							{
								OFFSET 0.000000 0.000000 0.000000
							}
						}
					}
				}
				JOINT LeftShoulder
				{
					OFFSET 0.000000 0.000000 0.000000
					CHANNELS 3 Zrotation Yrotation Xrotation
					JOINT LeftArm
					{
						OFFSET 2.700000 1.550000 -0.730000
						CHANNELS 3 Zrotation Yrotation Xrotation
						JOINT LeftForeArm
						{
							OFFSET 5.450000 0.000000 0.000000
							CHANNELS 3 Zrotation Yrotation Xrotation
							JOINT LeftHand
							{
								OFFSET 3.450000 0.000000 0.000000
								CHANNELS 3 Zrotation Yrotation Xrotation
								JOINT LeftHandIndex1
								{
									OFFSET 0.750000 0.000000 0.000000
									CHANNELS 3 Zrotation Yrotation Xrotation
									End Site
									{
										OFFSET 0.000000 0.000000 0.000000
									}
								}
							}
						}
					}
				}
				JOINT RightShoulder
				{
					OFFSET 0.000000 0.000000 0.000000
					CHANNELS 3 Zrotation Yrotation Xrotation
					JOINT RightArm
					{
						OFFSET -2.700000 1.550000 -0.730000
						CHANNELS 3 Zrotation Yrotation Xrotation
						JOINT RightForeArm
						{
							OFFSET -5.450000 0.000000 0.000000
							CHANNELS 3 Zrotation Yrotation Xrotation
							JOINT RightHand
							{
								OFFSET -3.450000 0.000000 0.000000
								CHANNELS 3 Zrotation Yrotation Xrotation
								JOINT RightHandIndex1
								{
									OFFSET -0.750000 0.000000 0.000000
									CHANNELS 3 Zrotation Yrotation Xrotation
									End Site
									{
										OFFSET 0.000000 0.000000 0.000000
									}
								}
							}
						}
					}
				}
			}
		}
	}
}
MOTION
Frames: 4
Frame Time: 0.016667
-0.207620 16.853090 -4.970630 -4.609680 19.030425 3.337412 -15.406670 12.260425 5.209586 20.173593 -1.969858 -42.643122 -3.020074 11.678944 39.555221 0.530189 7.593507 1.778892 -0.264070 -0.787160 0.128890 17.993690 -10.330099 2.978855 -12.638450 5.709329 -23.816516 14.250105 -11.729544 32.801063 -0.253272 -5.535002 2.569592 -0.679400 -0.092380 -0.028970 -3.345667 -1.009839 -9.529113 13.121179 4.186709 16.313536 -1.955795 9.638941 -28.924029 0.899831 -2.391054 -10.972863 -5.808662 -5.141424 44.432808 -6.151920 -5.671110 16.682470 -0.650035 28.508703 0.354860 -64.072503 27.158775 -16.383831 33.475606 -54.523342 -9.262574 -3.257135 2.745955 0.441690 -0.105590 -0.088910 -0.124710 -3.963845 -16.318584 5.121653 55.424472 -14.788960 -13.514726 -33.126144 30.882921 -4.869812 2.664429 -1.220314 -0.112360 -0.234700 0.023160 -0.218290 
-0.221760 16.838720 -4.981500 -4.143627 19.114707 3.292511 -15.407392 12.259546 5.183132 19.443991 -2.292189 -42.919670 -2.219939 11.391388 40.312475 0.530000 7.581676 1.791705 -0.264570 -0.784480 0.127240 17.989585 -10.342414 2.991887 -13.244497 5.638628 -23.966686 14.475823 -11.960915 33.119285 -0.266306 -5.629765 2.533364 -0.672920 -0.086850 -0.045800 -3.337368 -0.989763 -9.514085 12.623066 4.355491 16.636109 -1.904553 9.636626 -28.970579 0.808996 -2.586962 -10.872241 -6.270823 -4.931106 44.562911 -5.557550 -6.027610 16.564580 -0.614975 28.567574 0.338127 -63.758430 26.506020 -16.104974 33.349307 -54.828718 -9.347761 -3.246233 2.741767 0.446130 -0.111850 -0.092220 -0.121090 -3.688104 -16.367720 5.020311 55.363800 -15.004645 -13.558446 -34.369048 30.840301 -5.078168 2.667213 -1.219163 -0.124830 -0.217780 0.020120 -0.217180 
-0.238110 16.820300 -4.989450 -3.365454 19.131925 3.379257 -15.398882 12.305727 5.133704 18.239949 -2.798497 -43.090907 -1.087012 10.919009 41.253830 0.522062 7.533363 1.804704 -0.259510 -0.781700 0.118600 17.983154 -10.343791 3.033033 -14.273855 5.557700 -24.352372 14.854808 -12.290571 33.424127 -0.282960 -5.753150 2.474744 -0.668050 -0.093080 -0.052400 -3.344671 -1.051024 -9.513894 12.247601 4.385128 16.904179 -2.368484 9.358252 -29.505104 0.858452 -3.155552 -10.835136 -7.496566 -4.219500 45.323452 -5.058000 -6.126230 16.831650 -0.524520 28.987056 0.261979 -62.307396 26.157917 -15.370950 33.368414 -55.626818 -9.514924 -3.239519 2.783973 0.457990 -0.124520 -0.093660 -0.119540 -3.680813 -16.456043 5.044071 55.297679 -15.308297 -13.495114 -35.710671 31.133281 -5.253225 2.665072 -1.232430 -0.129070 -0.222650 0.023520 -0.219240 
-0.254840 16.798040 -4.996620 -2.385996 19.288690 3.510728 -15.364789 12.350703 5.080987 16.669943 -3.492398 -43.306394 0.405117 10.214109 42.334090 0.536053 7.450431 1.840081 -0.258870 -0.778500 0.104140 18.002873 -10.354362 3.066786 -15.568947 5.399504 -24.836850 14.998379 -12.627686 33.924334 -0.296736 -5.886016 2.416354 -0.669530 -0.089830 -0.062360 -3.437028 -1.114505 -9.503651 12.361282 4.144838 17.231171 -3.574909 8.643077 -29.901044 0.878212 -4.126598 -10.913771 -9.585395 -3.146987 45.888372 -4.031890 -6.540310 17.125070 -0.070401 29.208604 0.337803 -60.642931 25.666650 -14.695440 33.662148 -56.112201 -9.757408 -3.242531 2.823337 0.458570 -0.137500 -0.096030 -0.114350 -3.983575 -16.183613 5.264402 55.886279 -15.754798 -13.766590 -36.523085 31.712262 -5.437057 2.665206 -1.237613 -0.126570 -0.221700 0.023590 -0.209320 
